<svg width="30" height="30" viewBox="0 0 30 30" fill="none" xmlns="http://www.w3.org/2000/svg">
<mask id="path-1-inside-1_764_3604" fill="white">
<path fill-rule="evenodd" clip-rule="evenodd" d="M26.3652 10.5436C28.3695 10.5436 30 12.2157 30 14.2725C30 16.3278 28.3695 18 26.3652 18H10.5617C8.04668 18 6 15.9003 6 13.3195C6 10.7387 8.04668 8.63896 10.5617 8.63896C11.0301 8.63896 11.4956 8.71292 11.9438 8.85872L12.2368 8.95381L12.3398 8.65728C13.3057 5.8715 15.8869 4 18.7624 4C22.2781 4 25.1961 6.70195 25.5503 10.2858L25.583 10.6175L25.9059 10.5767C26.0841 10.5541 26.2302 10.5436 26.3652 10.5436Z"/>
</mask>
<path fill-rule="evenodd" clip-rule="evenodd" d="M26.3652 10.5436C28.3695 10.5436 30 12.2157 30 14.2725C30 16.3278 28.3695 18 26.3652 18H10.5617C8.04668 18 6 15.9003 6 13.3195C6 10.7387 8.04668 8.63896 10.5617 8.63896C11.0301 8.63896 11.4956 8.71292 11.9438 8.85872L12.2368 8.95381L12.3398 8.65728C13.3057 5.8715 15.8869 4 18.7624 4C22.2781 4 25.1961 6.70195 25.5503 10.2858L25.583 10.6175L25.9059 10.5767C26.0841 10.5541 26.2302 10.5436 26.3652 10.5436Z" fill="#A1AAB5"/>
<path d="M11.9438 8.85872L11.6344 9.80967L11.6351 9.80988L11.9438 8.85872ZM12.2368 8.95381L11.9281 9.90497L12.86 10.2074L13.1814 9.28191L12.2368 8.95381ZM12.3398 8.65728L13.2844 8.98537L13.2846 8.98488L12.3398 8.65728ZM25.5503 10.2858L26.5455 10.1877L26.5455 10.1874L25.5503 10.2858ZM25.583 10.6175L24.5879 10.7156L24.6887 11.7386L25.7086 11.6096L25.583 10.6175ZM25.9059 10.5767L25.7804 9.58458L25.9059 10.5767ZM26.3652 11.5436C27.7933 11.5436 29 12.7439 29 14.2725H31C31 11.6876 28.9456 9.54357 26.3652 9.54357V11.5436ZM29 14.2725C29 15.7995 27.7936 17 26.3652 17V19C28.9454 19 31 16.8562 31 14.2725H29ZM26.3652 17H10.5617V19H26.3652V17ZM10.5617 17C8.62301 17 7 15.3724 7 13.3195H5C5 16.4282 7.47036 19 10.5617 19V17ZM7 13.3195C7 11.2666 8.62301 9.63896 10.5617 9.63896V7.63896C7.47036 7.63896 5 10.2107 5 13.3195H7ZM10.5617 9.63896C10.9245 9.63896 11.2857 9.6962 11.6344 9.80967L12.2532 7.90778C11.7056 7.72964 11.1356 7.63896 10.5617 7.63896V9.63896ZM11.6351 9.80988L11.9281 9.90497L12.5455 8.00266L12.2525 7.90757L11.6351 9.80988ZM13.1814 9.28191L13.2844 8.98537L11.3951 8.32918L11.2921 8.62571L13.1814 9.28191ZM13.2846 8.98488C14.1157 6.58781 16.3273 5 18.7624 5V3C15.4464 3 12.4957 5.1552 11.395 8.32967L13.2846 8.98488ZM18.7624 5C21.7445 5 24.2496 7.29245 24.5552 10.3841L26.5455 10.1874C26.1426 6.11145 22.8117 3 18.7624 3V5ZM24.5551 10.3839L24.5879 10.7156L26.5782 10.5194L26.5455 10.1877L24.5551 10.3839ZM25.7086 11.6096L26.0315 11.5688L25.7804 9.58458L25.4575 9.62544L25.7086 11.6096ZM26.0315 11.5688C26.1809 11.5499 26.2835 11.5436 26.3652 11.5436V9.54357C26.177 9.54357 25.9873 9.55841 25.7804 9.58458L26.0315 11.5688Z" fill="#A1AAB5" mask="url(#path-1-inside-1_764_3604)"/>
<mask id="path-3-inside-2_764_3604" fill="white">
<path fill-rule="evenodd" clip-rule="evenodd" d="M4.24053 17.4783C1.90273 17.4783 0 19.3896 0 21.7395C0 24.088 1.90273 26 4.24053 26H22.6777C25.613 26 28 23.6003 28 20.6508C28 17.7013 25.613 15.3017 22.6777 15.3017C22.1316 15.3017 21.5885 15.3865 21.0652 15.5524L20.7242 15.6614L20.6037 15.3221C19.477 12.1386 16.4653 10 13.1104 10C9.00874 10 5.60456 13.0884 5.19153 17.1837L5.15331 17.5631L4.77703 17.5163C4.56831 17.49 4.39781 17.4783 4.24053 17.4783Z"/>
</mask>
<path fill-rule="evenodd" clip-rule="evenodd" d="M4.24053 17.4783C1.90273 17.4783 0 19.3896 0 21.7395C0 24.088 1.90273 26 4.24053 26H22.6777C25.613 26 28 23.6003 28 20.6508C28 17.7013 25.613 15.3017 22.6777 15.3017C22.1316 15.3017 21.5885 15.3865 21.0652 15.5524L20.7242 15.6614L20.6037 15.3221C19.477 12.1386 16.4653 10 13.1104 10C9.00874 10 5.60456 13.0884 5.19153 17.1837L5.15331 17.5631L4.77703 17.5163C4.56831 17.49 4.39781 17.4783 4.24053 17.4783Z" fill="#EDF3F9"/>
<path d="M21.0652 15.5524L20.7629 14.5992L20.7609 14.5999L21.0652 15.5524ZM20.7242 15.6614L19.7819 15.9962L20.1061 16.9086L21.0285 16.614L20.7242 15.6614ZM20.6037 15.3221L19.661 15.6557L19.6614 15.6569L20.6037 15.3221ZM5.19153 17.1837L4.19657 17.0833L4.19656 17.0835L5.19153 17.1837ZM5.15331 17.5631L5.0299 18.5555L6.04571 18.6818L6.14828 17.6633L5.15331 17.5631ZM4.77703 17.5163L4.65191 18.5085L4.65362 18.5087L4.77703 17.5163ZM4.24053 16.4783C1.34598 16.4783 -1 18.8418 -1 21.7395H1C1 19.9374 2.45948 18.4783 4.24053 18.4783V16.4783ZM-1 21.7395C-1 24.6358 1.34598 27 4.24053 27V25C2.45948 25 1 23.5402 1 21.7395H-1ZM4.24053 27H22.6777V25H4.24053V27ZM22.6777 27C26.17 27 29 24.1478 29 20.6508H27C27 23.0529 25.0559 25 22.6777 25V27ZM29 20.6508C29 17.1539 26.17 14.3017 22.6777 14.3017V16.3017C25.0559 16.3017 27 18.2488 27 20.6508H29ZM22.6777 14.3017C22.0278 14.3017 21.3828 14.4026 20.7629 14.5992L21.3676 16.5056C21.7942 16.3703 22.2354 16.3017 22.6777 16.3017V14.3017ZM20.7609 14.5999L20.4199 14.7088L21.0285 16.614L21.3695 16.505L20.7609 14.5999ZM21.6665 15.3266L21.546 14.9874L19.6614 15.6569L19.7819 15.9962L21.6665 15.3266ZM21.5464 14.9885C20.2796 11.409 16.8926 9 13.1104 9V11C16.038 11 18.6745 12.8682 19.661 15.6557L21.5464 14.9885ZM13.1104 9C8.49238 9 4.66083 12.4802 4.19657 17.0833L6.18648 17.284C6.54828 13.6967 9.5251 11 13.1104 11V9ZM4.19656 17.0835L4.15834 17.4629L6.14828 17.6633L6.18649 17.2839L4.19656 17.0835ZM5.27672 16.5708L4.90044 16.524L4.65362 18.5087L5.0299 18.5555L5.27672 16.5708ZM4.90215 16.5242C4.66244 16.494 4.44904 16.4783 4.24053 16.4783V18.4783C4.34657 18.4783 4.47418 18.4861 4.65191 18.5085L4.90215 16.5242Z" fill="#A1AAB5" mask="url(#path-3-inside-2_764_3604)"/>
</svg>
