<svg width="20" height="20" viewBox="0 0 20 20" fill="none" xmlns="http://www.w3.org/2000/svg">
<path d="M1.66667 3.05556C1.66667 2.28849 2.28849 1.66667 3.05556 1.66667H5.27778C5.73801 1.66667 6.11111 1.29357 6.11111 0.833333C6.11111 0.3731 5.73801 0 5.27778 0H3.05556C1.36802 0 0 1.36802 0 3.05556V5.27778C0 5.73801 0.3731 6.11111 0.833333 6.11111C1.29357 6.11111 1.66667 5.73801 1.66667 5.27778V3.05556Z" fill="#68727D"/>
<path d="M1.66667 16.9444C1.66667 17.7116 2.28849 18.3333 3.05556 18.3333H5.27778C5.73801 18.3333 6.11111 18.7064 6.11111 19.1667C6.11111 19.6269 5.73801 20 5.27778 20H3.05556C1.36802 20 0 18.632 0 16.9444V14.7222C0 14.262 0.3731 13.8889 0.833333 13.8889C1.29357 13.8889 1.66667 14.262 1.66667 14.7222V16.9444Z" fill="#68727D"/>
<path d="M16.9445 1.66667C17.7116 1.66667 18.3334 2.28849 18.3334 3.05556V5.27778C18.3334 5.73801 18.7065 6.11111 19.1667 6.11111C19.6269 6.11111 20 5.73801 20 5.27778V3.05556C20 1.36802 18.632 0 16.9445 0H14.7222C14.262 0 13.8889 0.3731 13.8889 0.833333C13.8889 1.29357 14.262 1.66667 14.7222 1.66667H16.9445Z" fill="#68727D"/>
<path d="M18.3334 16.9444C18.3334 17.7116 17.7116 18.3333 16.9445 18.3333H14.7222C14.262 18.3333 13.8889 18.7064 13.8889 19.1667C13.8889 19.6269 14.262 20 14.7222 20H16.9445C18.632 20 20 18.632 20 16.9444V14.7222C20 14.262 19.6269 13.8889 19.1667 13.8889C18.7065 13.8889 18.3334 14.262 18.3334 14.7222V16.9444Z" fill="#68727D"/>
</svg>
