<svg width="30" height="30" viewBox="0 0 30 30" fill="none" xmlns="http://www.w3.org/2000/svg">
<path fill-rule="evenodd" clip-rule="evenodd" d="M19.6868 3.49008C18.9309 6.35579 17.7863 14.822 29.5995 14.6155C29.9194 14.6099 30.1132 14.9441 29.9277 15.1911C29.1202 16.2655 26.9235 18.3347 22.1531 17.9538C22.1531 17.9538 15.2992 17.1516 15.0035 9.84192C15.0035 9.84192 14.7279 5.5825 19.0682 3.05891C19.3846 2.87526 19.7768 3.14934 19.6868 3.49008" fill="#A1AAB5"/>
<mask id="path-2-inside-1_764_3638" fill="white">
<path fill-rule="evenodd" clip-rule="evenodd" d="M4.54343 17.4131C2.03864 17.4131 0 19.5633 0 22.207C0 24.849 2.03864 27 4.54343 27H24.2975C27.4425 27 30 24.3004 30 20.9822C30 17.664 27.4425 14.9644 24.2975 14.9644C23.7124 14.9644 23.1305 15.0598 22.5699 15.2465L22.2045 15.3691L22.0754 14.9874C20.8683 11.406 17.6414 9 14.0468 9C9.65222 9 6.00488 12.4745 5.56235 17.0816L5.5214 17.5085L5.11824 17.4559C4.89462 17.4263 4.71193 17.4131 4.54343 17.4131"/>
</mask>
<path fill-rule="evenodd" clip-rule="evenodd" d="M4.54343 17.4131C2.03864 17.4131 0 19.5633 0 22.207C0 24.849 2.03864 27 4.54343 27H24.2975C27.4425 27 30 24.3004 30 20.9822C30 17.664 27.4425 14.9644 24.2975 14.9644C23.7124 14.9644 23.1305 15.0598 22.5699 15.2465L22.2045 15.3691L22.0754 14.9874C20.8683 11.406 17.6414 9 14.0468 9C9.65222 9 6.00488 12.4745 5.56235 17.0816L5.5214 17.5085L5.11824 17.4559C4.89462 17.4263 4.71193 17.4131 4.54343 17.4131" fill="#EDF3F9"/>
<path d="M22.5699 15.2465L22.2539 14.2977L22.2519 14.2984L22.5699 15.2465ZM22.2045 15.3691L21.2573 15.6896L21.5769 16.6343L22.5226 16.3171L22.2045 15.3691ZM22.0754 14.9874L21.1278 15.3068L21.1281 15.3079L22.0754 14.9874ZM5.56235 17.0816L4.56693 16.986L4.56692 16.9861L5.56235 17.0816ZM5.5214 17.5085L5.39193 18.5001L6.41804 18.6341L6.51684 17.604L5.5214 17.5085ZM5.11824 17.4559L4.98697 18.4472L4.98877 18.4475L5.11824 17.4559ZM4.54343 16.4131C1.43659 16.4131 -1 19.0621 -1 22.207H1C1 20.0644 2.64069 18.4131 4.54343 18.4131V16.4131ZM-1 22.207C-1 25.3502 1.43659 28 4.54343 28V26C2.64069 26 1 24.3478 1 22.207H-1ZM4.54343 28H24.2975V26H4.54343V28ZM24.2975 28C28.0448 28 31 24.8012 31 20.9822H29C29 23.7996 26.8401 26 24.2975 26V28ZM31 20.9822C31 17.1632 28.0448 13.9644 24.2975 13.9644V15.9644C26.8401 15.9644 29 18.1648 29 20.9822H31ZM24.2975 13.9644C23.6033 13.9644 22.9148 14.0776 22.2539 14.2977L22.8859 16.1953C23.3463 16.0419 23.8216 15.9644 24.2975 15.9644V13.9644ZM22.2519 14.2984L21.8865 14.421L22.5226 16.3171L22.8879 16.1946L22.2519 14.2984ZM23.1518 15.0486L23.0226 14.6669L21.1281 15.3079L21.2573 15.6896L23.1518 15.0486ZM23.023 14.668C21.6883 10.7081 18.0996 8 14.0468 8V10C17.1832 10 20.0482 12.1039 21.1278 15.3068L23.023 14.668ZM14.0468 8C9.09505 8 5.05461 11.9088 4.56693 16.986L6.55777 17.1772C6.95515 13.0401 10.2094 10 14.0468 10V8ZM4.56692 16.9861L4.52597 17.413L6.51684 17.604L6.55778 17.1771L4.56692 16.9861ZM5.65088 16.5169L5.24772 16.4643L4.98877 18.4475L5.39193 18.5001L5.65088 16.5169ZM5.24952 16.4645C4.99343 16.4306 4.76574 16.4131 4.54343 16.4131V18.4131C4.65813 18.4131 4.7958 18.4219 4.98697 18.4472L5.24952 16.4645Z" fill="#A1AAB5" mask="url(#path-2-inside-1_764_3638)"/>
</svg>
