<svg width="30" height="30" viewBox="0 0 30 30" fill="none" xmlns="http://www.w3.org/2000/svg">
<path fill-rule="evenodd" clip-rule="evenodd" d="M19.7337 18C19.7337 18 18.8029 20.7282 19.0381 21.7725C19.2329 22.6347 20.0455 23.1646 20.8508 22.9537C21.6583 22.7421 22.1519 21.869 21.9578 21.0068C21.7225 19.9633 19.7337 18 19.7337 18" fill="#7AC8E4"/>
<path fill-rule="evenodd" clip-rule="evenodd" d="M25.7337 18C25.7337 18 24.8029 20.7282 25.0381 21.7717C25.2329 22.6347 26.0455 23.1646 26.8508 22.9537C27.6583 22.7421 28.1519 21.869 27.9578 21.0068C27.7225 19.9633 25.7337 18 25.7337 18" fill="#7AC8E4"/>
<path fill-rule="evenodd" clip-rule="evenodd" d="M3.73375 18C3.73375 18 2.80286 20.7282 3.03811 21.7717C3.23294 22.6347 4.04549 23.1646 4.85082 22.9537C5.65832 22.7421 6.15191 21.869 5.95779 21.0068C5.72254 19.9633 3.73375 18 3.73375 18" fill="#7AC8E4"/>
<path fill-rule="evenodd" clip-rule="evenodd" d="M9.60644 18.8565H13.2236L13.0327 18.1893C12.6876 16.9833 12.3743 15.8904 12.2756 15.5482C12.111 14.9769 12.1044 14.5326 12.2575 14.2649C12.3825 14.0455 12.5811 14 12.6272 14H13.7223C14.4087 14 14.8278 14.8603 14.9776 15.5965C15.0242 15.8263 15.0785 16.0905 15.1378 16.3796C15.3764 17.5414 15.7034 19.1331 15.9306 20.3743C16.0913 21.2526 15.9328 21.6203 15.8571 21.7376C15.7868 21.8466 15.6892 21.8991 15.558 21.8991H11.7939L13.1117 26.6237C13.1726 26.8411 13.1632 26.9611 13.1523 26.9991C13.1024 27.008 12.9229 26.9563 12.7611 26.6644C11.9947 25.2811 10.0629 21.7038 9.21965 20.0749C9.01556 19.6802 8.95082 19.3553 9.03751 19.1593C9.11651 18.9813 9.35023 18.8565 9.60644 18.8565" fill="#F9C900"/>
<path d="M13.292 6.98655L13.2923 6.98666L13.5609 7.07496L14.0299 7.22916L14.19 6.76214L14.2844 6.48678L14.2845 6.48654C15.1042 4.09177 17.2873 2.5 19.6988 2.5C22.6494 2.5 25.1223 4.79856 25.4235 7.88534L25.4535 8.19328L25.5034 8.70632L26.0147 8.64079L26.3107 8.60286C26.4594 8.58379 26.5713 8.57617 26.6681 8.57617C28.2113 8.57617 29.5 9.88679 29.5 11.5387C29.5 13.1893 28.2114 14.5 26.6681 14.5H12.1816C10.1703 14.5 8.5 12.7925 8.5 10.6538C8.5 8.51513 10.1703 6.80761 12.1816 6.80761C12.5574 6.80761 12.9314 6.8677 13.292 6.98655Z" fill="#EDF3F9" stroke="#A1AAB5"/>
<path fill-rule="evenodd" clip-rule="evenodd" d="M3.63474 9.54353C1.63091 9.54353 0 11.2159 0 13.2721C0 15.327 1.63091 17 3.63474 17H19.438C21.954 17 24 14.9003 24 12.3195C24 9.73866 21.954 7.63894 19.438 7.63894C18.9699 7.63894 18.5044 7.71316 18.0559 7.85838L17.7636 7.95371L17.6603 7.65686C16.6946 4.87132 14.1131 3 11.2375 3C7.72178 3 4.80391 5.70237 4.44988 9.2857L4.41712 9.61774L4.0946 9.57679C3.91569 9.55376 3.76955 9.54353 3.63474 9.54353" fill="#A1AAB5"/>
</svg>
