<svg width="30" height="30" viewBox="0 0 30 30" fill="none" xmlns="http://www.w3.org/2000/svg">
<path fill-rule="evenodd" clip-rule="evenodd" d="M4.95489 21C4.95489 21 3.73281 24.2649 4.0537 25.517C4.31887 26.553 5.40549 27.1942 6.4777 26.947C7.55375 26.699 8.20611 25.6557 7.94094 24.6206C7.62004 23.3675 4.95489 21 4.95489 21" fill="#7AC8E4"/>
<path fill-rule="evenodd" clip-rule="evenodd" d="M13.9549 21C13.9549 21 12.7328 24.2649 13.0537 25.5179C13.3189 26.553 14.4055 27.1942 15.4777 26.947C16.5538 26.699 17.2061 25.6557 16.9409 24.6206C16.62 23.3675 13.9549 21 13.9549 21" fill="#7AC8E4"/>
<path fill-rule="evenodd" clip-rule="evenodd" d="M22.0537 25.517C22.3189 26.553 23.4057 27.1942 24.4781 26.947C25.5543 26.699 26.2067 25.6557 25.9406 24.6206C25.6196 23.3675 22.955 21 22.955 21C22.955 21 21.7328 24.2649 22.0537 25.517Z" fill="#7AC8E4"/>
<mask id="path-4-inside-1_764_3628" fill="white">
<path fill-rule="evenodd" clip-rule="evenodd" d="M4.54343 10.4131C2.03864 10.4131 0 12.5633 0 15.207C0 17.849 2.03864 20 4.54343 20H24.2975C27.4425 20 30 17.3004 30 13.9822C30 10.664 27.4425 7.96436 24.2975 7.96436C23.7124 7.96436 23.1305 8.05977 22.5699 8.24649L22.2045 8.36905L22.0754 7.98739C20.8683 4.40598 17.6414 2 14.0468 2C9.65222 2 6.00488 5.47448 5.56235 10.0816L5.5214 10.5085L5.11824 10.4559C4.89462 10.4263 4.71193 10.4131 4.54343 10.4131"/>
</mask>
<path fill-rule="evenodd" clip-rule="evenodd" d="M4.54343 10.4131C2.03864 10.4131 0 12.5633 0 15.207C0 17.849 2.03864 20 4.54343 20H24.2975C27.4425 20 30 17.3004 30 13.9822C30 10.664 27.4425 7.96436 24.2975 7.96436C23.7124 7.96436 23.1305 8.05977 22.5699 8.24649L22.2045 8.36905L22.0754 7.98739C20.8683 4.40598 17.6414 2 14.0468 2C9.65222 2 6.00488 5.47448 5.56235 10.0816L5.5214 10.5085L5.11824 10.4559C4.89462 10.4263 4.71193 10.4131 4.54343 10.4131" fill="#EDF3F9"/>
<path d="M22.5699 8.24649L22.2539 7.29773L22.2518 7.29841L22.5699 8.24649ZM22.2045 8.36905L21.2573 8.68956L21.5769 9.63434L22.5226 9.31713L22.2045 8.36905ZM22.0754 7.98739L21.1278 8.30678L21.1281 8.30789L22.0754 7.98739ZM5.56235 10.0816L4.56693 9.986L4.56692 9.98614L5.56235 10.0816ZM5.5214 10.5085L5.39193 11.5001L6.41804 11.6341L6.51684 10.604L5.5214 10.5085ZM5.11824 10.4559L4.98697 11.4472L4.98877 11.4475L5.11824 10.4559ZM4.54343 9.41311C1.43659 9.41311 -1 12.0621 -1 15.207H1C1 13.0644 2.64069 11.4131 4.54343 11.4131V9.41311ZM-1 15.207C-1 18.3502 1.43658 21 4.54343 21V19C2.64069 19 1 17.3478 1 15.207H-1ZM4.54343 21H24.2975V19H4.54343V21ZM24.2975 21C28.0448 21 31 17.8012 31 13.9822H29C29 16.7996 26.8401 19 24.2975 19V21ZM31 13.9822C31 10.1632 28.0448 6.96436 24.2975 6.96436V8.96436C26.8401 8.96436 29 11.1648 29 13.9822H31ZM24.2975 6.96436C23.6033 6.96436 22.9148 7.07763 22.2539 7.29773L22.8859 9.19526C23.3463 9.04192 23.8216 8.96436 24.2975 8.96436V6.96436ZM22.2518 7.29841L21.8865 7.42097L22.5226 9.31713L22.8879 9.19457L22.2518 7.29841ZM23.1518 8.04855L23.0226 7.66689L21.1281 8.30789L21.2573 8.68956L23.1518 8.04855ZM23.023 7.66799C21.6883 3.70806 18.0996 1 14.0468 1V3C17.1832 3 20.0482 5.1039 21.1278 8.30678L23.023 7.66799ZM14.0468 1C9.09505 1 5.05461 4.90881 4.56693 9.986L6.55777 10.1772C6.95515 6.04015 10.2094 3 14.0468 3V1ZM4.56692 9.98614L4.52597 10.413L6.51684 10.604L6.55778 10.1771L4.56692 9.98614ZM5.65088 9.51694L5.24772 9.4643L4.98877 11.4475L5.39193 11.5001L5.65088 9.51694ZM5.24951 9.46453C4.99343 9.43062 4.76573 9.41311 4.54343 9.41311V11.4131C4.65814 11.4131 4.7958 11.4219 4.98697 11.4472L5.24951 9.46453Z" fill="#A1AAB5" mask="url(#path-4-inside-1_764_3628)"/>
</svg>
