<svg width="30" height="30" viewBox="0 0 30 30" fill="none" xmlns="http://www.w3.org/2000/svg">
<path fill-rule="evenodd" clip-rule="evenodd" d="M10 25C10 26.1044 9.10421 27 7.99958 27C6.89495 27 6 26.1044 6 25C6 23.8956 6.89495 23 7.99958 23C9.10421 23 10 23.8956 10 25" fill="#A1AAB5"/>
<path fill-rule="evenodd" clip-rule="evenodd" d="M17 25C17 26.1044 16.1042 27 14.9996 27C13.8949 27 13 26.1044 13 25C13 23.8956 13.8949 23 14.9996 23C16.1042 23 17 23.8956 17 25" fill="#A1AAB5"/>
<path fill-rule="evenodd" clip-rule="evenodd" d="M24 25C24 26.1044 23.1042 27 21.9996 27C20.8949 27 20 26.1044 20 25C20 23.8956 20.8949 23 21.9996 23C23.1042 23 24 23.8956 24 25" fill="#A1AAB5"/>
<mask id="path-4-inside-1_764_3641" fill="white">
<path fill-rule="evenodd" clip-rule="evenodd" d="M4.54343 11.4131C2.03864 11.4131 0 13.5633 0 16.207C0 18.849 2.03864 21 4.54343 21H24.2975C27.4425 21 30 18.3004 30 14.9822C30 11.664 27.4425 8.96436 24.2975 8.96436C23.7124 8.96436 23.1305 9.05977 22.5699 9.24649L22.2045 9.36905L22.0754 8.98739C20.8683 5.40598 17.6414 3 14.0468 3C9.65222 3 6.00488 6.47448 5.56235 11.0816L5.5214 11.5085L5.11824 11.4559C4.89462 11.4263 4.71193 11.4131 4.54343 11.4131"/>
</mask>
<path fill-rule="evenodd" clip-rule="evenodd" d="M4.54343 11.4131C2.03864 11.4131 0 13.5633 0 16.207C0 18.849 2.03864 21 4.54343 21H24.2975C27.4425 21 30 18.3004 30 14.9822C30 11.664 27.4425 8.96436 24.2975 8.96436C23.7124 8.96436 23.1305 9.05977 22.5699 9.24649L22.2045 9.36905L22.0754 8.98739C20.8683 5.40598 17.6414 3 14.0468 3C9.65222 3 6.00488 6.47448 5.56235 11.0816L5.5214 11.5085L5.11824 11.4559C4.89462 11.4263 4.71193 11.4131 4.54343 11.4131" fill="#EDF3F9"/>
<path d="M22.5699 9.24649L22.2539 8.29773L22.2519 8.29841L22.5699 9.24649ZM22.2045 9.36905L21.2573 9.68956L21.5769 10.6343L22.5226 10.3171L22.2045 9.36905ZM22.0754 8.98739L21.1278 9.30678L21.1281 9.30789L22.0754 8.98739ZM5.56235 11.0816L4.56693 10.986L4.56692 10.9861L5.56235 11.0816ZM5.5214 11.5085L5.39193 12.5001L6.41804 12.6341L6.51684 11.604L5.5214 11.5085ZM5.11824 11.4559L4.98697 12.4472L4.98877 12.4475L5.11824 11.4559ZM4.54343 10.4131C1.43659 10.4131 -1 13.0621 -1 16.207H1C1 14.0644 2.64069 12.4131 4.54343 12.4131V10.4131ZM-1 16.207C-1 19.3502 1.43659 22 4.54343 22V20C2.64069 20 1 18.3478 1 16.207H-1ZM4.54343 22H24.2975V20H4.54343V22ZM24.2975 22C28.0448 22 31 18.8012 31 14.9822H29C29 17.7996 26.8401 20 24.2975 20V22ZM31 14.9822C31 11.1632 28.0448 7.96436 24.2975 7.96436V9.96436C26.8401 9.96436 29 12.1648 29 14.9822H31ZM24.2975 7.96436C23.6033 7.96436 22.9148 8.07763 22.2539 8.29773L22.8859 10.1953C23.3463 10.0419 23.8216 9.96436 24.2975 9.96436V7.96436ZM22.2519 8.29841L21.8865 8.42097L22.5226 10.3171L22.8879 10.1946L22.2519 8.29841ZM23.1518 9.04855L23.0226 8.66688L21.1281 9.30789L21.2573 9.68956L23.1518 9.04855ZM23.023 8.66799C21.6883 4.70806 18.0996 2 14.0468 2V4C17.1832 4 20.0482 6.1039 21.1278 9.30678L23.023 8.66799ZM14.0468 2C9.09505 2 5.05461 5.90881 4.56693 10.986L6.55777 11.1772C6.95515 7.04015 10.2094 4 14.0468 4V2ZM4.56692 10.9861L4.52597 11.413L6.51684 11.604L6.55778 11.1771L4.56692 10.9861ZM5.65088 10.5169L5.24772 10.4643L4.98877 12.4475L5.39193 12.5001L5.65088 10.5169ZM5.24952 10.4645C4.99343 10.4306 4.76573 10.4131 4.54343 10.4131V12.4131C4.65813 12.4131 4.7958 12.4219 4.98697 12.4472L5.24952 10.4645Z" fill="#A1AAB5" mask="url(#path-4-inside-1_764_3641)"/>
</svg>
