<svg width="20" height="20" viewBox="0 0 20 20" fill="none" xmlns="http://www.w3.org/2000/svg">
<path d="M12.5055 2.7134C14.0403 2.38114 15.9443 2.39775 18.5353 3.0439C18.9818 3.15524 19.2532 3.60659 19.1416 4.05201C19.03 4.49743 18.5776 4.76825 18.1311 4.65691C15.7222 4.05619 14.0846 4.07289 12.859 4.33823C11.6296 4.60437 10.7459 5.13223 9.80962 5.70303L9.73954 5.74578C8.83704 6.29638 7.83767 6.90608 6.51732 7.12558C5.14782 7.35323 3.53006 7.15196 1.3574 6.28489C0.930099 6.11437 0.722269 5.63056 0.893207 5.20428C1.06414 4.77799 1.54912 4.57066 1.97642 4.74119C3.97033 5.53692 5.26917 5.64749 6.24337 5.48554C7.23244 5.32113 7.98648 4.86597 8.94054 4.28433C9.87921 3.71204 10.9745 3.04483 12.5055 2.7134Z" fill="#68727D"/>
<path d="M18.5353 6.36921C15.9443 5.72307 14.0403 5.70646 12.5055 6.03871C10.9745 6.37015 9.87921 7.03735 8.94054 7.60964C7.98648 8.19128 7.23244 8.64645 6.24337 8.81086C5.26917 8.97278 3.97033 8.8622 1.97642 8.0665C1.54912 7.89598 1.06414 8.1033 0.893207 8.52961C0.722269 8.95586 0.930099 9.4397 1.3574 9.6102C3.53006 10.4773 5.14782 10.6785 6.51732 10.4509C7.83767 10.2314 8.83704 9.6217 9.73954 9.07111L9.80962 9.02836C10.7459 8.45753 11.6296 7.92968 12.859 7.66354C14.0846 7.3982 15.7222 7.3815 18.1311 7.98222C18.5776 8.09356 19.03 7.82275 19.1416 7.37732C19.2532 6.9319 18.9818 6.48055 18.5353 6.36921Z" fill="#68727D"/>
<path fill-rule="evenodd" clip-rule="evenodd" d="M15.8333 8.35553C15.5439 8.35553 15.3028 8.50495 15.1346 8.73103C15.0755 8.81086 14.9389 8.9977 14.7575 9.2592C14.5162 9.60695 14.1932 10.0902 13.8688 10.6296C13.5459 11.1664 13.2128 11.7734 12.958 12.3664C12.714 12.9344 12.4992 13.5512 12.5 14.1764C12.5006 14.3519 12.5216 14.5283 12.5504 14.701C12.5986 14.9894 12.6964 15.3864 12.9004 15.7934C13.1061 16.2039 13.4277 16.6395 13.9257 16.9707C14.4289 17.3054 15.0624 17.5 15.8333 17.5C16.6041 17.5 17.2376 17.3054 17.7408 16.9707C18.2388 16.6395 18.5604 16.2039 18.7661 15.7935C18.9701 15.3864 19.068 14.9894 19.1162 14.7011C19.1451 14.5281 19.1663 14.3513 19.1666 14.1756C19.1668 13.5504 18.9526 12.9345 18.7085 12.3664C18.4538 11.7734 18.1207 11.1664 17.7978 10.6296C17.4734 10.0902 17.1503 9.60695 16.909 9.2592C16.7276 8.9977 16.5909 8.81086 16.5319 8.73103C16.3637 8.50495 16.1225 8.35553 15.8333 8.35553ZM17.1767 13.0214C16.9628 12.5234 16.6708 11.9874 16.3687 11.485C16.1849 11.1795 16.0007 10.8919 15.8333 10.6395C15.6658 10.8919 15.4816 11.1795 15.2978 11.485C14.9958 11.9874 14.7038 12.5234 14.4899 13.0214L14.4778 13.0496C14.3305 13.392 14.1565 13.7969 14.1668 14.1751C14.1768 14.4743 14.2574 14.7831 14.3912 15.0499C14.4979 15.2631 14.6451 15.4509 14.8502 15.5874C15.0501 15.7203 15.3541 15.8374 15.8333 15.8374C16.3124 15.8374 16.6164 15.7203 16.8163 15.5874C17.0214 15.4509 17.1686 15.263 17.2754 15.0499C17.4092 14.7831 17.4898 14.4743 17.4998 14.175C17.5102 13.7969 17.3361 13.3921 17.1888 13.0498L17.1767 13.0214Z" fill="#68727D"/>
<path d="M11.7747 9.60901C12.4083 9.40393 12.894 10.0633 12.5961 10.6577C12.46 10.9293 12.3069 11.1603 12.0026 11.2678C11.1884 11.5555 10.5139 11.9606 9.80961 12.3899L9.73953 12.4327C8.83703 12.9833 7.83766 13.5929 6.51731 13.8124C5.14782 14.0401 3.53006 13.8388 1.3574 12.9718C0.930097 12.8013 0.722271 12.3174 0.893206 11.8912C1.06415 11.4648 1.54911 11.2575 1.97642 11.4281C3.97033 12.2238 5.26917 12.3343 6.24337 12.1724C7.23244 12.008 7.98648 11.5528 8.94053 10.9712C9.8472 10.4184 10.7803 9.93093 11.7747 9.60901Z" fill="#68727D"/>
</svg>
