<svg width="20" height="20" viewBox="0 0 20 20" fill="none" xmlns="http://www.w3.org/2000/svg">
<path d="M6.11111 0.832013C6.11111 0.372509 5.73801 0 5.27778 0C4.81754 0 4.44444 0.372509 4.44444 0.832013V3.60539C4.44444 4.06489 4.07134 4.4374 3.61111 4.4374H0.833333C0.3731 4.4374 0 4.80991 0 5.26941C0 5.72892 0.3731 6.10143 0.833333 6.10143H3.61111C4.99182 6.10143 6.11111 4.98391 6.11111 3.60539V0.832013Z" fill="#68727D"/>
<path d="M6.11111 19.1363C6.11111 19.5958 5.73801 19.9683 5.27778 19.9683C4.81754 19.9683 4.44444 19.5958 4.44444 19.1363V16.3629C4.44444 15.9034 4.07134 15.5309 3.61111 15.5309H0.833333C0.3731 15.5309 0 15.1584 0 14.6989C0 14.2394 0.3731 13.8669 0.833333 13.8669H3.61111C4.99182 13.8669 6.11111 14.9844 6.11111 16.3629V19.1363Z" fill="#68727D"/>
<path d="M14.7222 0C14.262 0 13.8889 0.372509 13.8889 0.832013V3.60539C13.8889 4.98391 15.0082 6.10143 16.3889 6.10143H19.1667C19.6269 6.10143 20 5.72892 20 5.26941C20 4.80991 19.6269 4.4374 19.1667 4.4374H16.3889C15.9287 4.4374 15.5556 4.06489 15.5556 3.60539V0.832013C15.5556 0.372509 15.1825 0 14.7222 0Z" fill="#68727D"/>
<path d="M13.8889 19.1364C13.8889 19.5958 14.262 19.9684 14.7222 19.9684C15.1825 19.9684 15.5556 19.5958 15.5556 19.1364V16.363C15.5556 15.9035 15.9287 15.531 16.3889 15.531H19.1667C19.6269 15.531 20 15.1584 20 14.699C20 14.2395 19.6269 13.8669 19.1667 13.8669H16.3889C15.0082 13.8669 13.8889 14.9845 13.8889 16.363V19.1364Z" fill="#68727D"/>
</svg>
