<svg width="30" height="30" viewBox="0 0 30 30" fill="none" xmlns="http://www.w3.org/2000/svg">
<path fill-rule="evenodd" clip-rule="evenodd" d="M15.0047 9C18.3185 9.00257 21.0026 11.6909 21 15.0047C20.9974 18.3185 18.3091 21.0026 14.9953 21C11.6815 20.9974 8.99744 18.3091 9 14.9953C9.00257 11.6815 11.6909 8.99744 15.0047 9" fill="#F9C900"/>
<path fill-rule="evenodd" clip-rule="evenodd" d="M14 22.9373C14 23.0173 13.9895 23.0991 13.9675 23.18L12.8524 27.3054C12.7174 27.805 12.2006 28.1019 11.698 27.9678C11.1955 27.8336 10.8969 27.3197 11.0328 26.8191L12.1479 22.6937C12.2829 22.1941 12.7997 21.8981 13.3022 22.0323C13.7234 22.1446 14 22.5234 14 22.9373" fill="#F9C900"/>
<path fill-rule="evenodd" clip-rule="evenodd" d="M10 20.9829C10 21.2473 9.89849 21.5117 9.69925 21.7053L6.56748 24.7398C6.18798 25.1081 5.59692 25.0821 5.24779 24.683C4.8977 24.2848 4.92142 23.6631 5.30091 23.2949L8.43269 20.2594C8.81218 19.8922 9.40325 19.9181 9.75238 20.3163C9.91841 20.5059 10 20.7444 10 20.9829" fill="#F9C900"/>
<path fill-rule="evenodd" clip-rule="evenodd" d="M8 16.9568C8 17.3816 7.71974 17.7686 7.29888 17.8802L3.17003 18.9694C2.66936 19.1013 2.15919 18.7948 2.02999 18.2837C1.90078 17.7735 2.20099 17.2526 2.70166 17.1207L6.83051 16.0306C7.33023 15.8986 7.84039 16.2061 7.9696 16.7163C7.9905 16.7968 8 16.8773 8 16.9568" fill="#F9C900"/>
<path fill-rule="evenodd" clip-rule="evenodd" d="M8 13.0436C8 13.1222 7.9905 13.2019 7.97055 13.2816C7.84137 13.7936 7.33127 14.1015 6.83163 13.9694L2.70244 12.8823C2.20185 12.7511 1.90073 12.2294 2.02992 11.7184C2.15816 11.2064 2.66825 10.8985 3.16884 11.0306L7.29803 12.1177C7.71978 12.2285 8 12.6171 8 13.0436" fill="#F9C900"/>
<path fill-rule="evenodd" clip-rule="evenodd" d="M10 9.03417C10 9.27575 9.91143 9.51831 9.73332 9.70588C9.3694 10.0889 8.76865 10.0997 8.39319 9.72748L5.28835 6.6616C4.91288 6.29039 4.90229 5.67761 5.26717 5.29462C5.63108 4.91064 6.23087 4.90082 6.6073 5.27203L9.71118 8.3389C9.90373 8.52843 10 8.78081 10 9.03417" fill="#F9C900"/>
<path fill-rule="evenodd" clip-rule="evenodd" d="M14 7.06699C14 7.48457 13.7084 7.86513 13.272 7.97142C12.7564 8.09764 12.2329 7.79395 12.1028 7.29381L11.0295 3.16267C10.8993 2.66158 11.2124 2.1548 11.7281 2.02858C12.2437 1.90236 12.7672 2.20605 12.8973 2.70619L13.9706 6.83733C13.9902 6.9142 14 6.99107 14 7.06699" fill="#F9C900"/>
<path fill-rule="evenodd" clip-rule="evenodd" d="M19 2.93609C19 3.01501 18.9894 3.09488 18.9682 3.17379L17.8677 7.30224C17.7346 7.80142 17.2157 8.10093 16.7084 7.96876C16.2011 7.83755 15.8983 7.32506 16.0314 6.82588L17.1318 2.69838C17.2649 2.19825 17.7848 1.8997 18.2921 2.03091C18.7184 2.14121 19 2.52058 19 2.93609" fill="#F9C900"/>
<path fill-rule="evenodd" clip-rule="evenodd" d="M25 6.00199C25 6.28174 24.8926 6.55945 24.6845 6.7568L21.5225 9.75469C21.1398 10.1168 20.5591 10.0731 20.2258 9.65601C19.8925 9.23894 19.9327 8.6062 20.3164 8.24303L23.4774 5.24616C23.8611 4.883 24.4408 4.92674 24.7741 5.34382C24.9262 5.53405 25 5.76904 25 6.00199" fill="#F9C900"/>
<path fill-rule="evenodd" clip-rule="evenodd" d="M28 11.9369C28 12.3473 27.7266 12.7236 27.3103 12.8376L23.1864 13.9664C22.6872 14.1032 22.1709 13.8096 22.0337 13.3117C21.8965 12.8129 22.1909 12.2989 22.69 12.1621L26.814 11.0333C27.3132 10.8974 27.8295 11.19 27.9667 11.6879C27.9895 11.7715 28 11.8552 28 11.9369" fill="#F9C900"/>
<path fill-rule="evenodd" clip-rule="evenodd" d="M28 18.0436C28 18.1222 27.9905 18.2019 27.9706 18.2816C27.8414 18.7936 27.3313 19.1015 26.8316 18.9694L22.7024 17.8823C22.2019 17.7511 21.9007 17.2294 22.0299 16.7184C22.1582 16.2064 22.6682 15.8985 23.1688 16.0306L27.298 17.1177C27.7198 17.2285 28 17.6171 28 18.0436" fill="#F9C900"/>
<path fill-rule="evenodd" clip-rule="evenodd" d="M25 24.0504C25 24.2966 24.9031 24.5438 24.7102 24.7292C24.3293 25.0961 23.7194 25.0894 23.3473 24.7138L20.275 21.6151C19.903 21.2394 19.9089 20.6379 20.2897 20.2709C20.6706 19.904 21.2805 19.9107 21.6526 20.2854L24.7249 23.3851C24.9089 23.5705 25 23.8099 25 24.0504" fill="#F9C900"/>
<path fill-rule="evenodd" clip-rule="evenodd" d="M19 27.064C19 27.4771 18.7227 27.855 18.3029 27.9673C17.8009 28.1024 17.2845 27.8064 17.1497 27.3067L16.0329 23.1816C15.8971 22.6818 16.1945 22.1669 16.6965 22.0327C17.1985 21.8976 17.7148 22.1936 17.8506 22.6933L18.9675 26.8194C18.9895 26.9013 19 26.9831 19 27.064" fill="#F9C900"/>
</svg>
