<svg width="18" height="15" viewBox="0 0 18 15" fill="none" xmlns="http://www.w3.org/2000/svg">
<path d="M15.4 13.1982C14.288 13.1982 13.176 12.7748 12.2 12C10.248 13.5405 7.752 13.5405 5.8 12C4.824 12.7748 3.712 13.1982 2.6 13.1982H1V15H2.6C3.696 15 4.792 14.6847 5.8 14.0991C7.8 15.2703 10.2 15.2703 12.2 14.0991C13.208 14.6847 14.296 15 15.4 15H17V13.1982" fill="#303236"/>
<path d="M18 10H13.5C11.8297 9.99853 10.2284 9.47127 9.04728 8.53391C7.8662 7.59654 7.20186 6.32563 7.2 5C7.22284 3.73425 7.8782 2.52752 9.02196 1.64521C8.43459 1.50104 7.82319 1.42801 7.20837 1.42857C2.73825 1.46186 1.8 6.10807 1.8 10H0C0 1.77907 3.91068 0.0244286 7.19163 0C8.59489 0.0147361 9.97467 0.28786 11.2223 0.797858C11.3616 0.856697 11.479 0.943584 11.5627 1.0498C11.6464 1.15602 11.6934 1.27784 11.699 1.40303C11.7046 1.52822 11.6686 1.65238 11.5947 1.76305C11.5207 1.87372 11.4114 1.96702 11.2777 2.03357C10.4144 2.40898 9.7352 3.00378 9.34912 3.72244C8.96304 4.4411 8.89254 5.24189 9.14893 5.99618C9.40532 6.75047 9.97372 7.41447 10.7628 7.88151C11.5519 8.34856 12.5159 8.59154 13.5 8.57143H18V10Z" fill="#303236"/>
</svg>
